<?xml version="1.0" encoding="utf-8"?>
<!-- Svg Vector Icons : http://www.onlinewebfonts.com/icon -->
<!DOCTYPE svg PUBLIC "-//W3C//DTD SVG 1.1//EN" "http://www.w3.org/Graphics/SVG/1.1/DTD/svg11.dtd">
<svg version="1.1" xmlns="http://www.w3.org/2000/svg" xmlns:xlink="http://www.w3.org/1999/xlink" x="0px" y="0px" viewBox="0 0 1000 1000" enable-background="new 0 0 1000 1000" xml:space="preserve">
<metadata> Svg Vector Icons : http://www.onlinewebfonts.com/icon </metadata>
<g><g transform="translate(0.000000,512.000000) scale(0.100000,-0.100000)"><path d="M2833.1,4962.5L2770,4907l-5.7-1274.4l-5.8-1274.5H1505.1c-1374,0-1337.6,3.8-1385.4-112.9c-28.7-70.8-11.5-158.8,42.1-204.8c36.3-34.4,103.3-36.4,1318.5-42.1l1280.2-3.8V119.2v-1873.4l-1274.5-5.8l-1274.4-5.7l-55.5-63.1c-74.6-82.3-74.6-160.8,0-235.4l55.5-55.5h1274.4h1272.5l5.8-1274.5l5.7-1274.5l63.1-55.5c76.5-68.9,155-72.7,227.7-9.6l53.6,45.9l9.6,1280.2l9.6,1278.3l1881.1,5.7l1879.2,3.8v-1253.4c0-1375.9-3.8-1339.5,112.9-1387.4c74.6-30.6,164.6-9.6,212.4,51.7c38.3,47.8,38.3,74.6,38.3,1318.5v1270.6h1270.6c1255.3,0,1270.6,0,1320.4,40.2c42.1,32.5,49.7,55.5,49.7,130.1c0,72.7-9.6,99.5-49.7,137.8l-49.8,45.9l-1270.6,5.7l-1270.6,5.8V119.2v1875.3l1280.2,3.8c1228.5,5.7,1282.1,7.7,1320.4,42.1c40.2,36.3,55.5,158.8,28.7,231.5c-32.5,86.1-47.8,86.1-1375.9,86.1H7257.3v1274.5V4907l-55.5,55.5c-88,86.1-235.4,61.2-285.1-49.8c-17.2-36.3-23-371.2-23-1301.2V2358.1H5008.9H3124v1274.5V4907l-55.5,55.5C2993.8,5037.2,2915.4,5037.2,2833.1,4962.5z M6893.7,119.2v-1875.3H5008.9H3124V119.2v1875.3h1884.9h1884.9V119.2z"/><path d="M4767.7,972.7C4341,850.2,4061.6,412,4134.3-18.6c124.4-727.2,1012.3-997,1523.2-465c405.7,424.8,269.8,1132.9-267.9,1400.8c-132,65.1-156.9,70.8-338.7,74.6C4928.5,995.7,4823.2,989.9,4767.7,972.7z M5221.3,599.6c111-49.8,202.9-137.8,256.4-245c38.3-72.7,47.8-120.6,47.8-235.4s-9.6-162.7-47.8-235.4c-93.8-183.7-254.5-279.4-470.8-281.3c-107.2,0-155,9.6-233.4,49.8c-384.6,191.4-384.6,742.5,0,933.8C4897.9,649.3,5098.8,655,5221.3,599.6z"/><path d="M722.4,4474.6c-32.5-13.4-68.9-47.8-82.3-76.5c-51.7-114.8-40.2-135.9,277.5-455.5l300.4-302.3l-300.4-302.3c-321.5-323.4-333-344.5-271.7-463.1c36.3-68.9,134-105.3,212.4-76.5c30.6,11.5,181.8,147.3,338.7,302.3l281.3,281.3l283.2-281.3c155-153.1,300.4-288.9,325.3-302.3c128.2-63.1,283.2,88,231.5,227.7c-11.5,26.8-145.4,176.1-300.4,332.9l-281.3,281.3l281.3,283.2c155,155,288.9,304.3,300.4,331.1c51.7,139.7-103.3,290.8-231.5,227.7c-24.9-13.4-170.3-149.3-325.3-302.3l-283.2-281.3L1197,4179.9c-244.9,243-346.4,323.4-403.8,321.5C785.6,4499.5,753,4488,722.4,4474.6z"/><path d="M4260.6,4482.2c-61.2-24.9-103.3-95.7-103.3-170.3c0-59.3,28.7-95.7,300.4-369.3l300.4-302.3l-300.4-302.3c-264.1-266-300.4-310-300.4-365.5c0-82.3,26.8-130.1,97.6-166.5c101.4-51.7,143.5-24.9,447.8,279.4c158.8,158.8,294.7,287,306.2,287c11.5,0,147.3-128.2,306.2-287c304.2-304.2,346.3-331,447.8-279.4c70.8,36.3,97.6,84.2,97.6,166.5c0,55.5-36.4,99.5-300.4,365.5l-300.4,302.3l300.4,302.3c264.1,266,300.4,310,300.4,365.5c0,82.3-26.8,130.1-97.6,166.5c-101.4,51.7-143.5,24.9-447.8-279.4c-158.8-158.8-294.7-287-306.2-287c-9.6,0-147.3,128.2-306.2,287C4408,4489.9,4356.3,4524.3,4260.6,4482.2z"/><path d="M8334.7,4472.7c-396.1-86.1-694.6-457.3-694.6-861.1c1.9-246.8,84.2-440.1,266-623.8c135.9-134,267.9-208.6,438.2-244.9c489.9-103.3,968.3,223.9,1058.2,723.3c82.3,463.1-246.8,928.1-717.6,1014.2C8543.3,4507.1,8483.9,4505.2,8334.7,4472.7z M8692.5,4107.2c197.1-57.4,363.6-285.1,363.6-495.6c0-114.8-57.4-258.3-139.7-348.3c-120.5-132-204.8-168.4-386.5-168.4c-134,0-166.5,7.7-256.4,57.4c-172.2,93.8-266,256.4-267.9,459.3c-1.9,214.3,141.6,419.1,346.4,489.9C8478.2,4145.4,8560.5,4147.3,8692.5,4107.2z"/><path d="M632.5,949.7c-65.1-34.4-91.9-82.3-91.9-162.7c0-55.5,36.3-99.5,300.4-365.5l300.4-302.3L841.1-183.1c-264.1-266-300.4-310-300.4-365.5c0-34.5,9.6-78.5,19.1-99.5c28.7-53.6,128.2-97.6,189.4-84.2c30.6,5.7,168.4,122.5,354,300.4l302.4,288.9l294.7-294.7c285.1-283.2,296.6-294.7,373.1-294.7c105.2,0,170.3,72.7,170.3,185.6c0,76.6-9.6,90-290.9,373.2L1662,119.2l290.9,294.7c279.4,281.3,290.9,296.6,290.9,371.2c0,112.9-65.1,185.6-170.3,185.6c-76.5,0-88-11.5-375.1-296.6l-296.6-294.7l-281.3,279.4C793.2,982.3,745.4,1011,632.5,949.7z"/><path d="M7888.8,967c-74.6-28.7-114.8-89.9-114.8-176c0-84.2,1.9-88,290.9-378.9l290.9-292.8l-290.9-292.8C7783.6-456.7,7774-470.1,7774-546.7c0-112.9,65.1-185.6,170.3-185.6c76.5,0,88,11.5,375.1,296.6L8616-139.1l195.2-193.3c422.9-417.2,457.3-440.1,568.3-382.7c70.8,36.3,97.6,84.2,97.6,166.5c0,55.5-36.4,99.5-300.4,365.5l-300.4,302.3l300.4,302.3c313.8,317.7,325.3,336.8,281.3,451.6c-9.6,26.8-44,61.2-76.5,78.4c-111,57.4-156.9,28.7-474.6-283.2l-292.8-288.9l-290.9,290.8C8032.3,959.3,7973,1001.4,7888.8,967z"/><path d="M4865.3-2598.1c-405.7-74.6-706.1-401.9-740.6-803.7c-42.1-505.2,375.1-956.8,884.1-956.8c509,0,926.2,453.5,884.1,956.8c-36.4,434.4-384.6,776.9-826.7,811.4C5003.1-2584.7,4913.2-2588.5,4865.3-2598.1z M5171.5-2973.1c137.8-40.2,287-187.5,334.9-331.1c147.4-445.9-313.8-842-734.8-631.5c-170.3,86.1-266,227.7-283.2,419.1c-15.3,162.7,32.5,290.9,156.9,413.3C4794.5-2952.1,4962.9-2911.9,5171.5-2973.1z"/><path d="M8464.8-2600c-55.5-9.6-156.9-44-223.9-74.6c-447.8-214.3-633.4-765.4-407.6-1209.4c57.4-111,233.5-292.8,352.1-359.8c532-304.3,1213.2,28.7,1312.7,643c72.7,457.4-237.3,895.6-708,995.1C8648.5-2577,8614.1-2575.1,8464.8-2600z M8851.3-3001.8c313.8-156.9,394.2-562.6,160.8-815.2c-120.6-130.1-204.8-166.5-386.6-168.4c-179.9,0-264.1,32.5-384.6,153.1c-143.5,143.5-183.7,388.5-95.7,574.1C8273.4-2986.5,8591.1-2871.7,8851.3-3001.8z"/></g></g>
</svg>